<svg width="1600" height="752" viewBox="0 0 1600 752" fill="none" xmlns="http://www.w3.org/2000/svg">
<path d="M418.021 168.006C421.531 164.935 424.913 162.18 428.175 159.719C438.784 149.151 450.746 141.147 466.604 142.38C482.463 141.146 494.425 149.151 505.035 159.719C508.296 162.18 511.678 164.935 515.188 168.006C525.022 176.609 534.915 185.885 544.966 195.308C596.556 243.679 652.319 295.962 725.812 281.33C760.988 274.327 774.45 255.102 786.331 238.141C804.1 212.76 818.325 192.451 896.438 225.76C1006.12 272.535 1007.76 270.427 1042.81 225.395C1049.4 216.927 1057.17 206.942 1067.06 195.478C1087.11 172.248 1101.49 150.045 1114.69 129.684C1142.64 86.5629 1165.22 51.701 1224.88 32.8278C1293.98 10.9625 1346.05 -4.32936 1367.54 1.10186C1389.03 -4.32913 1441.11 10.9627 1510.21 32.8279C1569.86 51.7011 1592.44 86.5629 1620.39 129.684C1633.59 150.045 1647.98 172.248 1668.02 195.478C1677.91 206.942 1685.68 216.927 1692.27 225.395C1727.32 270.427 1728.96 272.535 1838.64 225.76C1916.76 192.451 1930.98 212.76 1948.76 238.141C1960.63 255.102 1974.09 274.328 2009.27 281.33C2082.76 295.962 2138.53 243.679 2190.12 195.309L2190.13 195.298C2200.18 185.878 2210.06 176.606 2219.89 168.006C2274.01 120.672 2297.68 148.218 2320.03 174.224C2322.59 177.204 2325.14 180.165 2327.71 182.991L2342.71 428.683H2054.88V530.097L2192.38 530.098C2181.54 542.586 2143.88 577.051 2079.88 615.013C2076.38 617.088 2072.98 619.116 2069.67 621.092L2069.5 621.191C1997.17 664.353 1965.26 683.39 1812.38 649.98C1708.23 627.215 1702.06 634.089 1677.35 661.637C1664.09 676.41 1645.51 697.127 1603.62 722.408C1483.62 794.836 1402.38 719.91 1332.38 649.98C1315.39 633.009 1300.17 621.042 1286.4 612.61C1285.07 613.409 1283.72 614.21 1282.38 615.012C1278.88 617.088 1275.48 619.114 1272.17 621.092L1272 621.19C1199.67 664.353 1167.76 683.39 1014.88 649.98C910.725 627.215 904.562 634.089 879.85 661.637C866.594 676.41 848.012 697.127 806.125 722.408C688.055 793.668 607.498 722.283 538.261 653.358C494.829 671.103 446.969 673.107 341.124 649.98C236.972 627.221 230.809 634.089 206.097 661.637C192.846 676.41 174.26 697.127 132.374 722.408C12.3737 794.836 -68.8763 719.91 -138.876 649.98C-197.031 591.882 -234.479 592.393 -264.124 592.798C-270.162 592.88 -275.876 592.959 -281.376 592.536V530.098H-255.75V428.683H-444.791C-446.458 296.732 -448.791 28.3322 -444.791 10.3502C-439.791 -12.1275 -379.479 5.04294 -291.666 32.8278C-232.018 51.701 -209.427 86.5629 -181.483 129.684C-168.288 150.045 -153.9 172.248 -133.854 195.478C-123.962 206.942 -116.191 216.927 -109.602 225.395C-74.5569 270.427 -72.9163 272.535 36.7713 225.76C114.885 192.451 129.107 212.76 146.881 238.141C158.758 255.102 172.221 274.327 207.396 281.33C280.89 295.962 336.653 243.679 388.242 195.308C398.294 185.885 408.187 176.609 418.021 168.006Z" fill="#FAFAFC"/>
</svg>
